<?xml version="1.0" encoding="UTF-8"?>
<svg xmlns="http://www.w3.org/2000/svg" style="display: none;">
  <!-- Progress Circle -->
  <symbol id="progress-circle" viewBox="0 0 24 24">
    <circle cx="12" cy="12" r="10" stroke="currentColor" stroke-width="2" fill="none"/>
    <circle cx="12" cy="12" r="6" fill="currentColor"/>
  </symbol>

  <!-- Progress Circle Empty -->
  <symbol id="progress-circle-empty" viewBox="0 0 24 24">
    <circle cx="12" cy="12" r="10" stroke="currentColor" stroke-width="2" fill="none"/>
  </symbol>

  <!-- Arrow Right -->
  <symbol id="arrow-right" viewBox="0 0 24 24">
    <path d="M13.5 4.5L21 12m0 0l-7.5 7.5M21 12H3" stroke="currentColor" stroke-width="2" stroke-linecap="round" stroke-linejoin="round" fill="none"/>
  </symbol>

  <!-- Arrow Left -->
  <symbol id="arrow-left" viewBox="0 0 24 24">
    <path d="M10.5 19.5L3 12m0 0l7.5-7.5M3 12h18" stroke="currentColor" stroke-width="2" stroke-linecap="round" stroke-linejoin="round" fill="none"/>
  </symbol>

  <!-- Check -->
  <symbol id="check" viewBox="0 0 24 24">
    <path d="M20 6L9 17l-5-5" stroke="currentColor" stroke-width="2" stroke-linecap="round" stroke-linejoin="round" fill="none"/>
  </symbol>

  <!-- Error -->
  <symbol id="error" viewBox="0 0 24 24">
    <circle cx="12" cy="12" r="10" stroke="currentColor" stroke-width="2" fill="none"/>
    <path d="M12 8v4m0 4h.01" stroke="currentColor" stroke-width="2" stroke-linecap="round" stroke-linejoin="round"/>
  </symbol>

  <!-- Loading -->
  <symbol id="loading" viewBox="0 0 24 24">
    <path d="M12 2v4m0 12v4M4.93 4.93l2.83 2.83m8.48 8.48l2.83 2.83M2 12h4m12 0h4M4.93 19.07l2.83-2.83m8.48-8.48l2.83-2.83" stroke="currentColor" stroke-width="2" stroke-linecap="round"/>
  </symbol>
</svg> 